<svg id="svg" version="1.1" xmlns="http://www.w3.org/2000/svg" xmlns:xlink="http://www.w3.org/1999/xlink" width="400" height="400" viewBox="0, 0, 400,400"><g id="svgg"><path id="path0" d="M207.227 3.516 C 207.094 3.730,206.039 3.906,204.883 3.906 C 203.727 3.906,202.672 4.082,202.539 4.297 C 202.406 4.512,201.603 4.688,200.753 4.688 C 199.904 4.688,197.937 5.062,196.382 5.520 C 194.827 5.977,192.894 6.435,192.087 6.538 C 191.280 6.640,190.523 6.880,190.404 7.073 C 190.285 7.265,189.770 7.422,189.258 7.422 C 188.746 7.422,188.219 7.598,188.086 7.813 C 187.953 8.027,187.325 8.203,186.690 8.203 C 186.056 8.203,185.231 8.358,184.858 8.548 C 184.485 8.738,183.740 9.065,183.203 9.275 C 182.666 9.485,181.611 9.917,180.859 10.234 C 180.107 10.552,178.657 11.054,177.637 11.350 C 176.616 11.647,175.781 12.027,175.781 12.195 C 175.781 12.363,175.440 12.500,175.023 12.500 C 174.606 12.500,174.156 12.676,174.023 12.891 C 173.891 13.105,173.438 13.281,173.019 13.281 C 172.329 13.281,171.735 13.515,169.922 14.503 C 169.600 14.679,168.721 15.107,167.969 15.455 C 167.217 15.804,165.926 16.424,165.100 16.833 C 164.274 17.243,163.409 17.578,163.177 17.578 C 162.946 17.578,162.479 17.821,162.140 18.118 C 161.801 18.415,160.117 19.406,158.398 20.320 C 153.976 22.674,153.836 22.754,152.473 23.730 C 151.799 24.214,151.003 24.609,150.706 24.609 C 150.409 24.609,149.557 25.130,148.813 25.765 C 148.070 26.401,147.317 26.929,147.142 26.937 C 146.966 26.946,146.247 27.393,145.543 27.930 C 144.838 28.467,144.059 28.906,143.811 28.906 C 143.563 28.906,143.359 29.082,143.359 29.297 C 143.359 29.512,143.169 29.688,142.937 29.688 C 142.704 29.687,141.763 30.303,140.846 31.055 C 139.928 31.807,139.003 32.422,138.790 32.422 C 138.577 32.422,138.084 32.773,137.695 33.203 C 137.306 33.633,136.767 33.984,136.496 33.984 C 136.225 33.984,135.505 34.519,134.896 35.172 C 134.287 35.826,133.042 36.837,132.130 37.418 C 131.217 38.000,130.470 38.608,130.469 38.770 C 130.469 38.931,130.214 39.063,129.902 39.063 C 129.590 39.062,128.755 39.651,128.046 40.371 C 127.338 41.091,125.943 42.296,124.946 43.049 C 123.041 44.489,120.506 46.730,118.740 48.535 C 118.162 49.126,117.515 49.609,117.304 49.609 C 116.827 49.609,100.876 65.501,99.368 67.477 C 98.767 68.266,96.993 70.235,95.427 71.853 C 93.860 73.472,92.578 74.985,92.578 75.217 C 92.578 75.449,91.465 76.769,90.104 78.151 C 88.743 79.533,86.781 81.895,85.744 83.398 C 84.707 84.902,83.572 86.396,83.222 86.719 C 82.318 87.552,78.906 91.984,78.906 92.326 C 78.906 92.639,76.362 96.129,75.047 97.618 C 74.592 98.135,74.219 98.699,74.219 98.873 C 74.219 99.046,73.878 99.506,73.462 99.893 C 73.046 100.281,72.211 101.498,71.606 102.597 C 70.468 104.668,66.880 110.204,66.454 110.547 C 65.927 110.971,64.418 113.823,63.918 115.341 C 63.792 115.722,63.378 116.130,62.997 116.248 C 62.616 116.367,61.999 116.626,61.626 116.825 C 61.253 117.025,60.680 117.188,60.352 117.188 C 60.023 117.188,59.450 117.349,59.077 117.545 C 58.467 117.867,56.647 118.645,54.492 119.505 C 53.137 120.046,51.375 120.889,51.172 121.094 C 51.064 121.202,50.449 121.548,49.805 121.864 C 48.318 122.592,44.399 125.018,44.141 125.371 C 44.033 125.517,43.154 126.190,42.188 126.864 C 39.781 128.544,37.810 130.402,36.706 132.031 C 36.196 132.783,35.487 133.662,35.131 133.984 C 34.774 134.307,33.984 135.493,33.375 136.621 C 32.767 137.749,32.127 138.672,31.955 138.672 C 31.782 138.672,31.641 139.026,31.641 139.458 C 31.641 139.891,31.474 140.550,31.270 140.923 C 30.455 142.411,29.723 146.528,30.098 147.512 C 30.302 148.049,30.469 148.910,30.469 149.426 C 30.469 150.414,31.630 153.229,32.129 153.451 C 32.290 153.522,32.422 153.850,32.422 154.179 C 32.422 154.894,35.069 158.594,35.580 158.594 C 35.777 158.594,35.937 158.929,35.937 159.339 C 35.937 160.185,38.040 162.007,43.555 165.941 C 46.531 168.065,46.660 167.995,49.760 162.557 L 51.621 159.293 48.523 156.111 C 43.485 150.938,42.287 145.635,45.083 140.888 C 47.627 136.571,58.276 128.125,61.177 128.125 C 61.439 128.125,62.469 127.776,63.466 127.348 C 68.691 125.109,79.757 123.249,102.930 120.715 C 123.059 118.513,151.337 117.436,175.977 117.930 C 197.258 118.358,231.538 121.242,250.977 124.242 C 252.480 124.474,254.766 124.823,256.055 125.018 C 263.342 126.121,273.871 127.840,275.391 128.176 C 276.357 128.390,279.170 128.916,281.641 129.345 C 293.295 131.368,316.586 136.970,323.681 139.456 C 330.427 141.820,339.076 147.180,341.211 150.320 C 341.641 150.952,342.575 152.286,343.288 153.284 C 348.227 160.204,347.708 166.363,341.628 172.989 C 337.350 177.651,339.819 178.481,344.384 173.915 C 346.390 171.909,347.656 169.996,347.656 168.971 C 347.656 168.420,347.832 167.969,348.047 167.969 C 348.262 167.969,348.438 167.628,348.438 167.211 C 348.437 166.794,348.613 166.344,348.828 166.211 C 349.055 166.071,349.219 163.936,349.219 161.133 C 349.219 158.330,349.055 156.195,348.828 156.055 C 348.613 155.922,348.438 155.375,348.438 154.840 C 348.438 153.698,347.413 151.563,346.865 151.563 C 346.656 151.563,346.484 151.226,346.484 150.814 C 346.484 150.402,346.353 150.007,346.191 149.935 C 346.030 149.863,345.028 148.750,343.964 147.461 C 341.047 143.926,333.719 137.891,332.343 137.891 C 332.043 137.891,331.630 137.735,331.426 137.545 C 330.727 136.895,325.763 134.375,325.180 134.375 C 324.616 134.375,324.199 134.210,322.369 133.264 C 321.888 133.016,321.151 132.813,320.731 132.813 C 320.312 132.813,319.859 132.637,319.727 132.422 C 319.594 132.207,319.143 132.031,318.725 132.031 C 318.307 132.031,317.054 131.592,315.941 131.055 C 314.827 130.518,313.520 130.078,313.036 130.078 C 312.552 130.078,312.047 129.902,311.914 129.688 C 311.781 129.473,311.254 129.297,310.742 129.297 C 310.230 129.297,309.687 129.096,309.535 128.850 C 309.219 128.339,309.729 128.427,313.867 129.602 C 316.990 130.488,321.356 131.963,322.358 132.469 C 322.731 132.658,323.380 132.813,323.800 132.813 C 324.220 132.813,324.672 132.988,324.805 133.203 C 324.937 133.418,325.440 133.594,325.921 133.594 C 326.403 133.594,326.964 133.748,327.168 133.936 C 327.875 134.588,331.280 136.328,331.850 136.328 C 332.164 136.328,332.422 136.504,332.422 136.719 C 332.422 136.934,332.686 137.109,333.008 137.109 C 333.330 137.109,333.956 137.472,334.399 137.915 C 336.058 139.573,337.727 136.832,336.702 134.135 C 336.496 133.594,336.328 132.229,336.328 131.101 C 336.328 128.700,335.230 126.324,332.110 121.971 C 330.992 120.413,330.078 118.980,330.078 118.787 C 330.078 118.223,320.239 108.430,318.848 107.611 C 318.149 107.199,317.578 106.649,317.578 106.388 C 317.578 106.126,317.007 105.514,316.309 105.026 C 315.610 104.538,314.951 104.031,314.844 103.899 C 314.736 103.767,313.840 103.110,312.852 102.438 C 311.865 101.766,310.762 100.767,310.402 100.217 C 310.042 99.668,309.488 99.219,309.171 99.219 C 308.853 99.219,308.590 99.087,308.585 98.926 C 308.580 98.765,307.790 98.105,306.828 97.461 C 305.867 96.816,305.079 96.183,305.079 96.054 C 305.079 95.924,303.979 94.959,302.637 93.910 C 300.371 92.138,296.071 88.232,293.122 85.266 C 291.874 84.010,290.428 83.328,287.109 82.431 C 286.143 82.169,285.046 81.796,284.673 81.603 C 284.300 81.409,283.476 81.250,282.841 81.250 C 282.206 81.250,281.590 81.094,281.472 80.903 C 281.354 80.711,280.684 80.462,279.984 80.348 C 279.284 80.235,277.656 79.843,276.367 79.478 C 275.078 79.112,273.276 78.729,272.363 78.625 C 271.450 78.522,270.703 78.273,270.703 78.072 C 270.703 77.864,271.582 77.805,272.754 77.935 C 281.159 78.868,284.653 79.401,286.942 80.102 C 287.602 80.304,288.602 80.469,289.165 80.469 C 289.728 80.469,290.297 80.645,290.430 80.859 C 290.562 81.074,290.939 81.250,291.267 81.250 C 292.230 81.250,291.389 73.166,290.386 72.781 C 290.088 72.666,289.844 72.332,289.844 72.039 C 289.844 71.745,289.333 71.240,288.709 70.918 C 288.085 70.595,287.318 70.075,287.006 69.763 C 286.694 69.450,284.875 68.187,282.965 66.954 C 278.868 64.311,279.121 64.498,279.345 64.275 C 279.612 64.008,283.430 65.328,285.639 66.452 C 286.012 66.642,286.584 66.797,286.909 66.797 C 287.234 66.797,287.500 66.937,287.500 67.109 C 287.500 67.952,291.656 68.714,292.402 68.009 C 292.606 67.816,293.477 67.559,294.336 67.438 C 295.195 67.317,296.953 67.042,298.242 66.827 C 302.983 66.035,307.500 65.940,311.133 66.558 C 318.463 67.804,320.101 68.443,319.731 69.912 C 318.813 73.563,318.732 78.998,319.588 79.527 C 319.772 79.641,319.922 80.156,319.922 80.673 C 319.922 81.691,321.537 84.826,322.710 86.086 C 323.110 86.515,323.438 87.063,323.438 87.305 C 323.438 87.797,324.074 88.506,326.677 90.918 C 327.663 91.831,328.641 92.578,328.851 92.578 C 329.060 92.578,329.290 92.710,329.362 92.871 C 329.878 94.032,336.961 97.758,340.625 98.796 C 341.592 99.070,342.960 99.541,343.666 99.842 C 344.371 100.144,345.522 100.391,346.224 100.391 C 346.926 100.391,347.667 100.553,347.871 100.751 C 349.574 102.404,370.948 101.474,372.753 99.668 C 373.001 99.421,373.697 99.219,374.301 99.219 C 374.905 99.219,376.232 98.850,377.250 98.399 C 378.269 97.947,379.497 97.420,379.980 97.227 C 382.047 96.400,383.112 95.827,384.812 94.630 C 385.805 93.931,386.815 93.359,387.058 93.359 C 387.301 93.359,387.500 93.184,387.500 92.969 C 387.500 92.754,387.727 92.578,388.005 92.578 C 388.811 92.578,394.904 86.149,395.901 84.246 C 396.760 82.608,397.466 81.470,397.949 80.944 C 398.985 79.817,398.598 69.168,397.461 67.494 C 396.924 66.704,396.484 65.903,396.484 65.714 C 396.484 65.525,396.045 64.958,395.508 64.453 C 394.971 63.949,394.531 63.399,394.531 63.231 C 394.531 63.063,394.122 62.517,393.621 62.016 C 393.121 61.516,392.550 60.835,392.352 60.503 C 391.850 59.661,387.411 56.251,386.816 56.250 C 386.548 56.250,386.328 56.089,386.328 55.893 C 386.328 55.581,382.065 53.376,379.297 52.257 C 378.760 52.040,378.015 51.707,377.642 51.517 C 377.269 51.327,376.444 51.172,375.810 51.172 C 375.175 51.172,374.565 51.026,374.455 50.847 C 374.345 50.669,372.972 50.305,371.404 50.038 C 369.837 49.772,367.189 49.303,365.519 48.996 C 360.562 48.084,351.996 48.689,345.128 50.435 C 344.263 50.655,343.115 50.924,342.578 51.033 C 342.041 51.142,341.206 51.393,340.723 51.592 C 340.239 51.791,339.448 52.106,338.965 52.292 C 336.908 53.085,332.031 55.600,332.031 55.867 C 332.031 56.028,331.681 56.251,331.252 56.363 C 330.592 56.535,330.509 56.422,330.708 55.627 C 330.896 54.877,330.791 54.688,330.189 54.688 C 329.773 54.687,328.480 53.760,327.314 52.627 C 326.149 51.493,324.492 50.049,323.633 49.417 C 322.236 48.389,320.140 46.592,318.383 44.917 C 318.042 44.591,317.150 43.901,316.401 43.383 C 315.652 42.865,314.424 41.837,313.672 41.098 C 312.920 40.360,311.316 39.081,310.108 38.256 C 308.899 37.431,307.811 36.496,307.689 36.179 C 307.567 35.861,306.183 34.725,304.613 33.653 C 303.042 32.581,301.318 31.292,300.781 30.787 C 299.882 29.942,298.529 28.932,292.120 24.316 C 290.852 23.403,289.726 22.656,289.617 22.656 C 289.509 22.656,289.073 22.333,288.649 21.937 C 288.225 21.542,287.397 20.971,286.810 20.669 C 286.223 20.366,285.654 20.030,285.547 19.922 C 285.219 19.593,283.834 18.768,282.992 18.399 C 282.553 18.207,281.960 17.768,281.674 17.424 C 281.388 17.079,280.956 16.794,280.714 16.790 C 280.270 16.782,276.451 14.900,273.719 13.342 C 272.906 12.879,272.027 12.500,271.764 12.500 C 271.501 12.500,270.018 11.885,268.468 11.133 C 266.918 10.381,265.391 9.766,265.075 9.766 C 264.758 9.766,264.391 9.590,264.258 9.375 C 264.125 9.160,263.587 8.984,263.063 8.984 C 262.538 8.984,262.109 8.809,262.109 8.594 C 262.109 8.379,261.592 8.203,260.961 8.203 C 260.329 8.203,259.703 8.027,259.570 7.813 C 259.438 7.598,258.810 7.422,258.175 7.422 C 257.540 7.422,256.715 7.267,256.342 7.078 C 255.141 6.470,251.782 5.465,250.957 5.467 C 250.517 5.468,249.989 5.310,249.785 5.116 C 249.437 4.785,248.305 4.592,243.555 4.055 C 242.480 3.934,241.435 3.675,241.230 3.480 C 240.706 2.978,207.537 3.014,207.227 3.516 M368.624 51.199 C 377.129 52.361,383.312 55.257,388.304 60.417 C 390.225 62.403,391.803 64.343,391.810 64.729 C 391.817 65.114,392.162 66.396,392.578 67.578 C 393.436 70.018,393.615 74.728,392.914 76.446 C 389.951 83.712,389.425 84.423,383.971 88.535 C 373.352 96.542,354.901 97.954,342.322 91.722 C 325.562 83.420,326.504 64.521,344.127 55.502 C 351.952 51.497,360.201 50.048,368.624 51.199 M305.859 127.344 C 305.859 127.802,305.559 127.802,304.492 127.344 C 303.800 127.046,303.833 127.005,304.785 126.981 C 305.376 126.965,305.859 127.129,305.859 127.344 M308.789 128.125 C 308.922 128.340,308.679 128.516,308.249 128.516 C 307.820 128.516,307.359 128.340,307.227 128.125 C 307.094 127.910,307.337 127.734,307.766 127.734 C 308.196 127.734,308.656 127.910,308.789 128.125 " stroke="none" fill="#eb0404" fill-rule="evenodd"></path><path id="path1" d="M356.445 51.377 C 341.666 53.771,330.170 63.903,330.307 74.414 C 330.596 96.606,368.788 103.599,388.192 85.013 C 389.975 83.305,390.521 82.314,392.914 76.446 C 393.615 74.728,393.436 70.018,392.578 67.578 C 392.162 66.396,391.817 65.114,391.810 64.729 C 391.803 64.343,390.225 62.403,388.304 60.417 C 380.951 52.816,368.816 49.373,356.445 51.377 M149.609 117.819 C 136.083 118.116,114.390 119.461,102.930 120.715 C 79.757 123.249,68.691 125.109,63.466 127.348 C 62.469 127.776,61.439 128.125,61.177 128.125 C 58.276 128.125,47.627 136.571,45.083 140.888 C 42.289 145.632,43.485 150.939,48.515 156.103 L 51.605 159.277 49.560 162.866 C 48.435 164.841,47.019 166.873,46.414 167.382 C 45.808 167.892,45.312 168.549,45.313 168.842 C 45.313 169.135,45.161 169.542,44.976 169.746 C 44.342 170.445,41.797 175.462,41.797 176.012 C 41.797 176.315,41.621 176.563,41.406 176.563 C 41.191 176.563,41.016 176.776,41.016 177.037 C 41.016 177.298,40.334 178.924,39.500 180.650 C 38.058 183.637,37.353 185.195,36.048 188.281 C 35.730 189.033,35.120 190.439,34.692 191.406 C 34.264 192.373,33.778 193.516,33.611 193.945 C 33.057 195.371,32.335 197.061,31.986 197.749 C 31.796 198.122,31.641 198.606,31.641 198.825 C 31.641 199.044,31.201 200.134,30.664 201.247 C 30.127 202.360,29.687 203.555,29.687 203.901 C 29.687 204.248,29.542 204.698,29.365 204.902 C 29.187 205.106,28.804 206.064,28.513 207.031 C 28.222 207.998,27.869 208.965,27.728 209.180 C 27.587 209.395,27.155 210.625,26.768 211.914 C 26.381 213.203,25.944 214.434,25.798 214.648 C 25.651 214.863,25.304 215.830,25.026 216.797 C 24.748 217.764,24.384 218.906,24.217 219.336 C 24.050 219.766,23.097 222.754,22.098 225.977 C 21.100 229.199,20.114 232.376,19.907 233.036 C 19.700 233.695,19.531 234.533,19.531 234.896 C 19.531 235.260,19.372 235.863,19.177 236.236 C 18.864 236.836,18.152 239.222,17.762 240.981 C 17.686 241.322,17.453 242.129,17.243 242.773 C 16.276 245.752,16.016 246.808,16.016 247.759 C 16.016 248.321,15.864 248.876,15.678 248.991 C 15.492 249.106,15.232 249.863,15.100 250.674 C 14.858 252.164,14.620 253.204,13.473 257.813 C 12.766 260.653,12.259 262.929,11.688 265.820 C 11.476 266.895,11.142 268.564,10.945 269.531 C 10.019 274.080,9.705 275.750,9.389 277.818 C 9.201 279.046,8.942 280.221,8.813 280.430 C 8.684 280.639,8.404 282.007,8.191 283.471 C 7.978 284.935,7.629 287.100,7.415 288.281 C 7.202 289.463,6.847 291.748,6.626 293.359 C 6.406 294.971,6.069 297.432,5.877 298.828 C 5.685 300.225,5.340 302.861,5.111 304.688 C 4.881 306.514,4.595 308.359,4.476 308.789 C 4.254 309.586,3.784 313.532,3.080 320.508 C 2.863 322.656,2.599 329.465,2.493 335.638 L 2.300 346.862 3.781 348.528 C 7.207 352.383,12.245 357.191,16.992 361.138 C 18.281 362.209,19.424 363.175,19.531 363.283 C 19.639 363.392,20.430 363.998,21.289 364.630 C 22.148 365.262,22.939 365.888,23.047 366.021 C 23.411 366.472,33.125 373.047,33.427 373.047 C 33.592 373.047,34.005 373.293,34.344 373.593 C 35.714 374.806,46.851 380.687,52.148 382.994 C 53.008 383.369,54.414 383.994,55.273 384.383 C 56.133 384.772,58.154 385.578,59.766 386.173 C 61.377 386.768,62.871 387.367,63.086 387.503 C 63.301 387.639,64.268 387.977,65.234 388.255 C 66.201 388.533,67.344 388.897,67.773 389.063 C 68.203 389.228,69.346 389.588,70.313 389.861 C 71.279 390.134,73.125 390.706,74.414 391.132 C 75.703 391.557,77.373 392.040,78.125 392.204 C 78.877 392.368,80.512 392.783,81.757 393.126 C 83.003 393.469,84.456 393.750,84.985 393.750 C 85.515 393.750,86.253 393.912,86.626 394.109 C 86.999 394.306,89.063 394.761,91.211 395.120 C 93.359 395.478,95.627 395.932,96.250 396.128 C 96.873 396.324,98.241 396.484,99.290 396.484 C 100.339 396.484,101.828 396.748,102.599 397.070 C 104.604 397.908,114.270 397.914,114.591 397.078 C 114.781 396.584,118.956 390.799,119.530 390.234 C 119.640 390.127,121.304 387.930,123.229 385.352 C 125.154 382.773,127.131 380.245,127.622 379.732 C 129.199 378.086,128.821 377.569,125.144 376.340 C 124.098 375.990,122.627 375.439,121.875 375.117 C 121.123 374.794,120.156 374.395,119.727 374.231 C 119.297 374.067,118.462 373.733,117.871 373.490 C 117.280 373.246,116.401 372.894,115.918 372.708 C 113.746 371.871,104.521 367.399,101.367 365.655 C 96.740 363.095,95.416 362.321,93.875 361.270 C 92.977 360.657,92.132 360.156,91.997 360.156 C 91.726 360.156,80.388 352.371,80.078 351.972 C 79.971 351.833,79.268 351.301,78.516 350.789 C 77.764 350.277,76.436 349.231,75.564 348.464 C 74.693 347.698,73.525 346.719,72.968 346.289 C 70.597 344.461,59.766 334.291,59.766 333.894 C 59.766 333.773,62.271 335.344,65.332 337.384 C 68.394 339.424,71.162 341.197,71.484 341.323 C 71.807 341.450,73.015 342.155,74.169 342.890 C 77.437 344.970,84.355 348.574,91.211 351.767 C 94.967 353.516,95.830 353.894,97.754 354.635 C 99.821 355.431,103.386 356.952,104.389 357.465 C 104.762 357.656,105.392 357.812,105.789 357.813 C 106.186 357.813,106.629 357.931,106.774 358.076 C 107.042 358.344,113.535 360.659,116.016 361.371 C 116.768 361.586,117.998 361.943,118.750 362.164 C 119.502 362.384,120.645 362.660,121.289 362.777 C 121.934 362.893,122.637 363.113,122.852 363.265 C 123.066 363.417,124.297 363.766,125.586 364.041 C 126.875 364.317,128.721 364.768,129.688 365.043 C 131.855 365.662,134.578 366.305,136.133 366.565 C 136.777 366.673,138.184 366.949,139.258 367.177 C 141.055 367.559,142.404 367.785,148.438 368.716 C 150.427 369.023,153.346 369.437,159.766 370.323 C 172.253 372.045,196.363 372.374,214.258 371.068 C 219.563 370.680,221.349 370.476,227.930 369.500 C 229.648 369.246,232.021 368.900,233.203 368.732 C 236.839 368.215,241.216 367.451,246.387 366.431 C 248.170 366.079,249.301 365.810,253.125 364.826 C 254.092 364.578,255.586 364.198,256.445 363.982 C 257.305 363.767,258.412 363.433,258.905 363.241 C 259.399 363.048,260.223 362.891,260.738 362.891 C 261.252 362.891,261.781 362.715,261.914 362.500 C 262.047 362.285,262.587 362.109,263.114 362.109 C 263.642 362.109,264.378 361.957,264.751 361.771 C 265.540 361.378,267.363 360.742,270.117 359.900 C 271.191 359.572,272.376 359.143,272.749 358.948 C 273.122 358.753,273.695 358.594,274.023 358.594 C 274.352 358.594,274.925 358.438,275.298 358.249 C 276.093 357.844,276.855 357.527,281.055 355.853 C 284.817 354.353,285.676 353.988,289.435 352.291 C 294.013 350.225,305.795 344.177,306.836 343.359 C 307.051 343.190,307.886 342.682,308.691 342.229 C 309.497 341.777,310.750 341.069,311.477 340.658 C 312.203 340.246,313.674 339.280,314.746 338.509 C 315.818 337.739,316.860 337.109,317.063 337.109 C 317.265 337.109,317.772 336.799,318.188 336.420 C 318.605 336.041,319.912 335.051,321.094 334.220 C 325.120 331.389,313.477 342.510,306.445 348.211 C 304.941 349.430,303.447 350.643,303.125 350.907 C 302.803 351.170,301.309 352.257,299.805 353.322 C 298.301 354.387,297.012 355.394,296.940 355.559 C 296.868 355.724,296.561 355.859,296.257 355.859 C 295.952 355.859,295.703 356.035,295.703 356.250 C 295.703 356.465,295.454 356.641,295.150 356.641 C 294.845 356.641,294.538 356.772,294.466 356.934 C 294.277 357.359,288.754 360.937,288.286 360.938 C 288.069 360.938,287.891 361.093,287.891 361.283 C 287.891 361.472,287.583 361.734,287.207 361.863 C 286.831 361.992,285.908 362.479,285.156 362.943 C 282.127 364.815,273.592 369.210,268.750 371.392 C 267.568 371.924,265.926 372.690,265.100 373.094 C 264.274 373.498,263.349 373.828,263.044 373.828 C 262.739 373.828,262.184 373.984,261.811 374.175 C 260.424 374.886,258.329 375.767,255.957 376.638 C 252.988 377.729,252.910 378.164,255.176 380.981 C 256.089 382.116,257.219 383.564,257.688 384.198 C 259.339 386.433,264.436 393.174,265.058 393.945 C 265.404 394.375,266.069 395.384,266.535 396.188 L 267.383 397.650 272.871 397.653 C 276.108 397.655,278.524 397.492,278.760 397.255 C 278.981 397.035,280.115 396.761,281.280 396.647 C 283.455 396.434,292.870 394.758,295.313 394.149 C 296.064 393.962,297.734 393.604,299.023 393.354 C 300.313 393.104,301.672 392.740,302.045 392.544 C 302.419 392.348,303.069 392.188,303.492 392.188 C 303.914 392.187,304.664 392.034,305.157 391.847 C 305.651 391.660,307.637 391.023,309.570 390.432 C 311.504 389.840,313.438 389.226,313.867 389.068 C 314.297 388.910,315.352 388.568,316.211 388.310 C 317.070 388.051,318.125 387.692,318.555 387.512 C 318.984 387.332,320.566 386.708,322.070 386.125 C 323.574 385.542,325.156 384.927,325.586 384.758 C 327.653 383.947,332.622 381.621,336.510 379.645 C 342.859 376.419,344.322 375.618,344.466 375.293 C 344.538 375.132,344.786 375.000,345.018 375.000 C 345.572 375.000,358.020 366.568,361.514 363.825 C 366.216 360.136,369.557 357.098,374.926 351.632 L 380.125 346.339 379.942 339.283 C 379.771 332.656,379.420 327.652,378.544 319.336 C 378.340 317.402,377.994 314.093,377.776 311.982 C 377.557 309.872,377.267 307.795,377.132 307.369 C 376.996 306.942,376.725 305.285,376.529 303.687 C 375.901 298.576,375.003 292.267,374.252 287.695 C 374.040 286.406,373.680 284.145,373.452 282.670 C 373.224 281.195,372.913 279.789,372.761 279.545 C 372.504 279.133,372.247 277.636,371.629 272.941 C 371.494 271.916,371.230 270.983,371.043 270.867 C 370.856 270.752,370.703 270.116,370.703 269.456 C 370.703 268.795,370.540 267.619,370.340 266.842 C 370.140 266.065,369.769 264.375,369.514 263.086 C 369.260 261.797,368.823 259.951,368.544 258.984 C 368.265 258.018,367.924 256.699,367.786 256.055 C 367.289 253.725,366.832 251.728,366.445 250.195 C 366.228 249.336,365.941 248.105,365.806 247.461 C 365.672 246.816,365.126 244.795,364.594 242.969 C 364.061 241.143,363.441 238.945,363.217 238.086 C 362.993 237.227,362.652 236.120,362.459 235.626 C 362.267 235.133,362.109 234.308,362.109 233.794 C 362.109 233.279,361.934 232.750,361.719 232.617 C 361.504 232.484,361.328 231.869,361.328 231.250 C 361.328 230.631,361.173 230.028,360.983 229.911 C 360.792 229.793,360.549 229.212,360.441 228.618 C 360.231 227.459,359.482 225.229,358.932 224.126 C 358.746 223.753,358.594 223.017,358.594 222.489 C 358.594 221.962,358.418 221.422,358.203 221.289 C 357.988 221.156,357.812 220.704,357.813 220.284 C 357.813 219.864,357.660 219.215,357.473 218.842 C 357.287 218.469,356.860 217.373,356.526 216.406 C 355.364 213.049,354.960 211.910,354.655 211.133 C 354.486 210.703,354.137 209.648,353.878 208.789 C 353.335 206.985,353.391 207.136,350.972 200.977 C 349.960 198.398,348.995 195.938,348.829 195.508 C 348.320 194.193,344.859 186.176,344.489 185.455 C 344.297 185.081,344.141 184.510,344.141 184.185 C 344.141 183.860,343.965 183.594,343.750 183.594 C 343.535 183.594,343.359 183.390,343.359 183.141 C 343.359 182.271,340.482 176.953,340.012 176.953 C 338.678 176.953,339.228 175.604,341.628 172.989 C 347.708 166.363,348.227 160.204,343.288 153.284 C 342.575 152.286,341.641 150.952,341.211 150.320 C 339.076 147.180,330.427 141.820,323.681 139.456 C 316.586 136.970,293.295 131.368,281.641 129.345 C 279.170 128.916,276.357 128.390,275.391 128.176 C 273.764 127.817,262.009 125.900,255.664 124.960 C 254.160 124.737,251.875 124.388,250.586 124.184 C 237.171 122.058,210.022 119.477,191.406 118.557 C 188.936 118.435,185.596 118.259,183.984 118.165 C 179.809 117.922,155.874 117.681,149.609 117.819 M142.188 244.164 C 145.967 245.503,147.016 245.988,149.583 247.587 C 158.372 253.063,164.230 264.668,164.209 276.563 C 164.205 279.163,164.040 280.570,163.052 286.429 C 162.916 287.237,162.648 287.995,162.457 288.113 C 162.266 288.231,162.109 288.655,162.109 289.054 C 162.109 291.026,157.979 297.869,154.711 301.312 C 150.245 306.017,145.846 308.397,139.130 309.740 C 135.844 310.397,128.476 309.856,127.506 308.886 C 127.345 308.725,126.889 308.594,126.492 308.594 C 125.727 308.594,125.314 308.412,121.674 306.474 C 118.968 305.032,112.791 299.187,112.283 297.587 C 112.158 297.196,111.893 296.875,111.692 296.875 C 111.492 296.875,111.328 296.611,111.328 296.289 C 111.328 295.967,111.152 295.703,110.938 295.703 C 110.723 295.703,110.547 295.352,110.547 294.922 C 110.547 294.492,110.371 294.141,110.156 294.141 C 109.941 294.141,109.766 293.789,109.766 293.359 C 109.766 292.930,109.633 292.578,109.471 292.578 C 109.162 292.578,108.731 291.482,107.627 287.891 C 107.264 286.709,106.774 285.127,106.538 284.375 C 105.918 282.400,105.981 270.506,106.622 268.555 C 106.904 267.695,107.488 265.938,107.921 264.648 C 111.763 253.192,120.072 245.433,130.469 243.590 C 132.313 243.263,140.821 243.680,142.188 244.164 M253.906 244.173 C 258.075 245.621,260.423 246.814,263.063 248.828 C 264.871 250.208,268.333 253.880,269.339 255.487 C 269.939 256.444,270.537 257.314,270.669 257.422 C 270.929 257.634,272.233 260.311,273.143 262.500 C 275.350 267.812,276.544 275.499,275.824 279.763 C 274.681 286.531,274.523 287.344,274.210 288.086 C 274.029 288.516,273.584 289.570,273.222 290.430 C 268.490 301.650,261.610 307.587,250.849 309.740 C 247.355 310.439,241.479 310.031,239.361 308.942 C 238.988 308.751,238.414 308.594,238.086 308.594 C 237.758 308.594,237.184 308.440,236.811 308.252 C 233.528 306.599,232.357 305.918,230.660 304.673 C 228.340 302.973,223.828 298.177,223.828 297.412 C 223.828 297.116,223.681 296.875,223.501 296.875 C 222.892 296.875,219.971 290.578,219.153 287.500 C 218.896 286.533,218.482 285.039,218.232 284.180 C 217.595 281.982,217.641 270.977,218.297 268.750 C 218.582 267.783,218.993 266.289,219.211 265.430 C 219.600 263.898,222.932 256.635,223.422 256.250 C 223.559 256.143,224.090 255.439,224.603 254.688 C 228.250 249.343,235.457 244.793,242.188 243.588 C 243.983 243.266,252.522 243.693,253.906 244.173 " stroke="none" fill="#fbfbfb" fill-rule="evenodd"></path></g></svg>